<?xml version="1.0" encoding="utf-8"?>
<!-- Generator: Adobe Illustrator 24.1.1, SVG Export Plug-In . SVG Version: 6.00 Build 0)  -->
<svg version="1.1" id="Camada_1" xmlns="http://www.w3.org/2000/svg" xmlns:xlink="http://www.w3.org/1999/xlink" x="0px" y="0px"
	 viewBox="0 0 280 38" style="enable-background:new 0 0 280 38;" xml:space="preserve">
<style type="text/css">
	.st0{fill:#0A0A0A;}
	.st1{fill:#2563FF;}
	.st2{enable-background:new    ;}
	.st3{fill:#F8F8F8;}
	.st4{fill:#B8BDC9;}
</style>
<g>
	<path class="st0" d="M34.31,2.37h19.74c3.63,0,6.58,2.95,6.58,6.58v19.74c0,3.63-2.95,6.58-6.58,6.58H34.31
		c-3.63,0-6.58-2.95-6.58-6.58V8.95C27.73,5.32,30.68,2.37,34.31,2.37z"/>
</g>
<g>
	<path class="st1" d="M54.05,25.73c-0.14,0-0.29-0.03-0.43-0.08l-16.45-6.58c-0.41-0.16-0.69-0.54-0.72-0.98
		c-0.04-0.44,0.18-0.85,0.56-1.08L49.9,9.28H34.31c-0.64,0-1.15-0.52-1.15-1.15c0-0.64,0.52-1.15,1.15-1.15h19.74
		c0.52,0,0.97,0.35,1.11,0.84c0.14,0.5-0.07,1.03-0.52,1.29l-14.46,8.68l14.3,5.72c0.59,0.24,0.88,0.91,0.64,1.5
		C54.94,25.46,54.51,25.73,54.05,25.73z"/>
</g>
<g>
	<path class="st1" d="M49.12,9.77c-0.3,0-0.59-0.17-0.74-0.45c-0.2-0.41-0.04-0.9,0.37-1.1l3.46-1.73l-3.46-1.73
		c-0.41-0.2-0.57-0.7-0.37-1.1c0.2-0.41,0.7-0.57,1.1-0.37l4.94,2.47c0.28,0.14,0.45,0.42,0.45,0.74c0,0.31-0.18,0.6-0.45,0.74
		l-4.94,2.47C49.37,9.75,49.24,9.77,49.12,9.77z"/>
</g>
<g>
	<circle class="st1" cx="54.05" cy="24.58" r="1.81"/>
</g>
<g class="st2">
	<path class="st3" d="M69.06,17.47V14.2l8.42-7.99h-8.42V2.94h14.2v3.28l-8.51,7.99h8.51v3.28H69.06z"/>
	<path class="st3" d="M114.14,17.47v-5.68l-6.39-8.86h4.87l3.59,5.14l3.59-5.14h4.87l-6.43,8.86v5.68H114.14z"/>
	<path class="st3" d="M149.84,17.47V2.94h8.49c3.57,0,5.9,2.23,5.9,4.75c0,1.88-1.21,3.61-3.26,4.19l-0.28,0.06l3.5,5.54h-4.59
		l-3.19-5.04h-2.47v5.04H149.84z M153.92,9.33h4.24c1,0,1.94-0.6,1.94-1.63s-0.93-1.65-1.94-1.65h-4.24V9.33z"/>
	<path class="st1" d="M189.49,10.22c0-4.15,4.06-7.48,9.02-7.48c5.01,0,9.05,3.33,9.05,7.48s-4.03,7.52-9.05,7.52
		C193.55,17.74,189.49,14.37,189.49,10.22z M203.48,10.22c0-2.25-2.21-4.09-4.97-4.09c-2.73,0-4.92,1.84-4.92,4.09
		c0,2.29,2.19,4.11,4.92,4.11C201.26,14.33,203.48,12.51,203.48,10.22z"/>
	<path class="st1" d="M233.16,17.47V2.94h4.08l7.11,8.55V2.94h4.08v14.54h-4.08l-7.11-8.55v8.55H233.16z"/>
</g>
<g class="st2">
	<path class="st4" d="M68.83,25.82c0-1.32,1.01-2.39,2.27-2.39c0.92,0,1.7,0.57,2.05,1.39h-0.61C72.23,24.33,71.71,24,71.1,24
		c-0.96,0-1.73,0.81-1.73,1.82c0,1.04,0.77,1.84,1.75,1.84c0.7,0,1.25-0.39,1.53-0.95v-0.64H71v-0.5h2.15v1.27
		c-0.35,0.81-1.09,1.39-2.05,1.39C69.84,28.23,68.83,27.15,68.83,25.82z"/>
	<path class="st4" d="M79.9,28.16v-4.66h2.01c0.75,0,1.29,0.62,1.29,1.35c0,0.63-0.41,1.18-0.98,1.26l-0.12,0.01l1.1,2.04h-0.61
		l-1.06-1.97h-1.08v1.97H79.9z M80.45,25.66h1.44c0.41,0,0.76-0.35,0.76-0.81c0-0.47-0.35-0.83-0.76-0.83h-1.44V25.66z"/>
	<path class="st4" d="M89.74,25.82c0-1.32,1.01-2.39,2.27-2.39c1.26,0,2.28,1.07,2.28,2.39c0,1.33-1.02,2.41-2.28,2.41
		C90.76,28.23,89.74,27.15,89.74,25.82z M93.75,25.82c0-1.01-0.77-1.82-1.74-1.82c-0.96,0-1.73,0.81-1.73,1.82
		c0,1.02,0.77,1.83,1.73,1.83C92.98,27.66,93.75,26.84,93.75,25.82z"/>
	<path class="st4" d="M102.21,28.16l-1.68-4.66h0.58l1.36,3.79l0.97-3.79H104l0.96,3.79l1.36-3.79h0.58l-1.69,4.66h-0.57l-0.93-3.71
		l-0.93,3.71H102.21z"/>
	<path class="st4" d="M114.72,28.16v-4.09h-1.4v-0.57h3.34v0.57h-1.39v4.09H114.72z"/>
	<path class="st4" d="M123.26,28.16v-4.66h0.54v2.05h2.39v-2.05h0.54v4.66h-0.54v-2.07h-2.39v2.07H123.26z"/>
	<path class="st4" d="M140.82,28.16v-4.66h0.54v4.66H140.82z"/>
	<path class="st4" d="M148.22,28.16v-4.66h0.54l2.41,3.66v-3.66h0.54v4.66h-0.54l-2.41-3.65v3.65H148.22z"/>
	<path class="st4" d="M159.71,28.16v-4.09h-1.4v-0.57h3.34v0.57h-1.39v4.09H159.71z"/>
	<path class="st4" d="M168.25,28.16v-4.66h3.06v0.52h-2.52v1.57h1.85v0.5h-1.85v1.57h2.52v0.52H168.25z"/>
	<path class="st4" d="M178.01,28.16v-4.66h0.54v4.15h2.52v0.52H178.01z"/>
	<path class="st4" d="M187.73,28.16v-4.66h0.54v4.15h2.52v0.52H187.73z"/>
	<path class="st4" d="M197.45,28.16v-4.66h0.54v4.66H197.45z"/>
	<path class="st4" d="M204.63,25.82c0-1.32,1.01-2.39,2.27-2.39c0.92,0,1.7,0.57,2.05,1.39h-0.61c-0.31-0.49-0.83-0.81-1.44-0.81
		c-0.96,0-1.73,0.81-1.73,1.82c0,1.04,0.77,1.84,1.75,1.84c0.7,0,1.25-0.39,1.53-0.95v-0.64h-1.65v-0.5h2.15v1.27
		c-0.35,0.81-1.09,1.39-2.05,1.39C205.65,28.23,204.63,27.15,204.63,25.82z"/>
	<path class="st4" d="M215.71,28.16v-4.66h3.06v0.52h-2.52v1.57h1.85v0.5h-1.85v1.57h2.52v0.52H215.71z"/>
	<path class="st4" d="M225.47,28.16v-4.66h0.54l2.41,3.66v-3.66h0.54v4.66h-0.54l-2.41-3.65v3.65H225.47z"/>
	<path class="st4" d="M235.61,25.82c0-1.32,1.01-2.39,2.27-2.39c0.92,0,1.7,0.57,2.05,1.39h-0.61c-0.31-0.49-0.83-0.81-1.44-0.81
		c-0.96,0-1.73,0.81-1.73,1.82c0,1.02,0.77,1.83,1.73,1.83c0.61,0,1.13-0.32,1.44-0.81h0.61c-0.35,0.81-1.13,1.39-2.05,1.39
		C236.62,28.23,235.61,27.15,235.61,25.82z"/>
	<path class="st4" d="M246.64,28.16v-4.66h3.06v0.52h-2.52v1.57h1.85v0.5h-1.85v1.57h2.52v0.52H246.64z"/>
</g>
</svg>
