<?xml version="1.0" encoding="utf-8"?>
<!-- Generator: Adobe Illustrator 24.1.1, SVG Export Plug-In . SVG Version: 6.00 Build 0)  -->
<svg version="1.1" id="Camada_1" xmlns="http://www.w3.org/2000/svg" xmlns:xlink="http://www.w3.org/1999/xlink" x="0px" y="0px"
	 viewBox="0 0 32 32" style="enable-background:new 0 0 32 32;" xml:space="preserve">
<style type="text/css">
	.st0{fill:#2563FF;}
	.st1{fill:#FFFFFF;}
</style>
<g>
	<path class="st0" d="M6.66,0.44h18.68c3.44,0,6.23,2.79,6.23,6.23v18.68c0,3.44-2.79,6.23-6.23,6.23H6.66
		c-3.44,0-6.23-2.79-6.23-6.23V6.66C0.44,3.22,3.22,0.44,6.66,0.44z"/>
</g>
<g>
	<g>
		<path class="st1" d="M24.88,25.91c-0.13,0-0.27-0.02-0.4-0.08L9.17,19.71c-0.38-0.15-0.64-0.5-0.67-0.91
			c-0.03-0.41,0.17-0.79,0.52-1l11.99-7.19H6.51c-0.59,0-1.07-0.48-1.07-1.07s0.48-1.07,1.07-1.07h18.37c0.48,0,0.9,0.32,1.03,0.79
			c0.13,0.46-0.07,0.96-0.48,1.2l-13.46,8.07l13.3,5.32c0.55,0.22,0.82,0.84,0.6,1.39C25.71,25.66,25.3,25.91,24.88,25.91z"/>
	</g>
	<g>
		<path class="st1" d="M20.29,11.07c-0.28,0-0.55-0.16-0.69-0.42c-0.19-0.38-0.04-0.84,0.34-1.03L23.17,8l-3.22-1.61
			c-0.38-0.19-0.53-0.65-0.34-1.03c0.19-0.38,0.65-0.53,1.03-0.34l4.59,2.3c0.26,0.13,0.42,0.39,0.42,0.68s-0.16,0.55-0.42,0.68
			l-4.59,2.3C20.52,11.04,20.4,11.07,20.29,11.07z"/>
	</g>
	<g>
		<circle class="st1" cx="24.88" cy="24.84" r="1.68"/>
	</g>
</g>
</svg>
